<svg xmlns="http://www.w3.org/2000/svg" viewBox="0 0 293.42 218.49"><defs><style>.cls-1{fill:#f9f9fa;stroke:#004c8a;stroke-miterlimit:10;}.cls-2{fill:#004c8a;}.cls-3{fill:#de3429;}.cls-4{fill:#091e64;}.cls-5{fill:#005998;}.cls-6{fill:#0089cb;}</style></defs><title>Ativo 2</title><g id="Camada_2" data-name="Camada 2"><g id="Camada_1-2" data-name="Camada 1"><g id="Camada_2-2" data-name="Camada 2"><g id="Camada_1-2-2" data-name="Camada 1-2"><g id="Camada_2-2-2" data-name="Camada 2-2"><g id="Camada_3" data-name="Camada 3"><path class="cls-1" d="M271.92,103.41c-21.4,42.1-77.5,79.4-90.4,87.7l-.3.2c-11,6.9-26.3,16.2-45.2,26.5a89.19,89.19,0,0,0-8.7-13.8,84.73,84.73,0,0,0-14.3-14.4l-.2-.2c-.9-.7-1.8-1.4-2.7-2h0c-13.5-10.4-51-39.5-71.3-60.8a101.35,101.35,0,0,1-12.3-15.4c-5.2-8.1-12.6-19.5-13.4-34.6-.1-2.6-.9-20.9,11.4-36.7,14.9-19.2,43.7-27.8,73-22.3a63.62,63.62,0,0,0-7.5-.8c-28.4-1.2-52.8,17.7-58.4,39.1-5.9,22.4,9.7,43.2,13.7,48.6a73.93,73.93,0,0,0,10,10.9c24.9,22.4,71.5,51.8,89,62.6,14.8-9.8,61.8-41.1,89-62.6a64.2,64.2,0,0,0,11.1-11c3.5-4.4,19.2-24.5,12.7-48.2-5.5-20-24.9-35.8-47.1-38.8a59.91,59.91,0,0,0-18.9.6c4.5-.9,45.3-8.4,71.3,16.4,3,2.9,14.8,14.4,17.4,32.3C280.52,71.21,281.82,84.11,271.92,103.41Z"/><path class="cls-2" d="M291.82,85.41c-10.1,41.6-105.6,102.7-105.6,102.7-1.4.9-3,1.9-4.7,3,12.9-8.3,68.9-45.7,90.4-87.7,9.8-19.3,8.6-32.2,7.9-36.7-2.6-18-14.3-29.5-17.4-32.4-26-24.8-66.8-17.3-71.3-16.4h-.2a62.77,62.77,0,0,0-46.6,39.9c-6-21.1-24.7-36.9-46.9-40.5h0c-29.3-5.5-58.1,3.1-73,22.3-12.2,15.9-11.4,34.3-11.3,36.9.8,15.2,8.2,26.5,13.4,34.6a101.35,101.35,0,0,0,12.3,15.4c20.3,21.3,57.7,50.4,71.3,60.8-7.1-5.3-15.3-10.1-25.5-16.4C65.32,159,55.72,153,47,146.31c-15.6-12.1-30.9-23.9-39.3-40.8-11.4-23.2-13.4-63.8,16.6-88.4,25.6-20.9,61.9-20.2,83.1-10.9,4,1.8,17,7.6,25.3,19.1,1.9,2.6,5.4,9.2,8.8,16.4,1.2,2.6,2.2,4.9,2.8,6.4.6-1.5,1.5-3.7,2.7-6.2,2.2-4.7,4.9-11,9.4-16.2a58.7,58.7,0,0,1,14.2-11.6c37.4-22,71.6-11,71.6-11s21.9,7.1,36,25.2a84.65,84.65,0,0,1,9.6,16.5,81.36,81.36,0,0,1,3.1,8.7c.7,2.4,1.2,4.8,1.7,7.3A65.69,65.69,0,0,1,291.82,85.41Z"/><path class="cls-3" d="M244.35,104.14a64.2,64.2,0,0,1-11.1,11c-27.2,21.5-74.2,52.8-89,62.6-17.5-10.8-64.1-40.2-89-62.6a68.83,68.83,0,0,1-10-10.9c-4-5.4-19.6-26.2-13.7-48.6,5.6-21.4,30-40.3,58.4-39.2a47.75,47.75,0,0,1,7.5.8h0c22.3,3.6,40.9,19.3,46.9,40.5A62.77,62.77,0,0,1,191,17.84h.2a59.91,59.91,0,0,1,18.9-.6c22.2,2.9,41.6,18.8,47.1,38.8C263.55,79.64,247.75,99.64,244.35,104.14Z"/><path class="cls-4" d="M144.34,57.73c-10.8,19.5-15.3,27.5-15.7,28l-.4.5-.9,1.4c-1.8,2.7-4.7,7.3-8.1,13.5-1.3,2.3-2.5,4.6-3.9,7.3s-6.7,14.3-2,27.2c3.7,10.2,14.3,23.1,30.5,23.3,15.7.3,27.6-11.5,31.6-23,4.4-12.8-1.5-23.9-2.9-26.5-3.1-5.6-4.9-9.4-8.1-15-2.4-4.3-4.2-7.3-4.9-8.4C156.24,80.53,151.24,71.73,144.34,57.73Z"/><path class="cls-5" d="M144.34,68.43a86.82,86.82,0,0,0-8.9,20.2c-2.9,9.9-8.5,28.7,1.5,39.3a18.8,18.8,0,0,0,23.3,4,13.83,13.83,0,0,0,7.3-13.9,18.49,18.49,0,0,0-2.7-8.5c-3.8-7.6-7.7-15.2-11.5-22.8Z"/><path class="cls-6" d="M137.54,150.53c2,.5,8.5,2.3,15.2-.1,11.5-4.1,13.9-17.1,14-17.7-.6.5-11.1,9-23.5,5.5a23.32,23.32,0,0,1-12.3-8.8c-1.1-1.6-3.1-5-3.5-13.1a60.35,60.35,0,0,1,3.9-24.5,75.52,75.52,0,0,0-10,21.3c-1.9,6.7-3.5,12.4-1.6,19.4a24,24,0,0,0,7,12.1A26.61,26.61,0,0,0,137.54,150.53Z"/></g></g></g></g></g></g></svg>