<svg xmlns="http://www.w3.org/2000/svg" viewBox="0 0 710.88 199.33"><defs><style>.cls-1,.cls-2,.cls-3{fill:none;stroke:#000;stroke-miterlimit:10;}.cls-2{stroke-width:0.5px;}.cls-3{stroke-width:0.75px;}</style></defs><title>Ativo 13</title><g id="Camada_2" data-name="Camada 2"><g id="Camada_2-2" data-name="Camada 2"><path class="cls-1" d="M641.23,1.52,599.17,94.63A82,82,0,0,0,601,73.51c-.17-6.27-.78-22.24-10.5-38C573.68,8.25,542.66,2.83,537.26,2L491.5,1.51V130Q461.38,65.76,431.25,1.52L371,134.88,346.75,94.52A40.05,40.05,0,0,0,362.25,84c10.4-11.52,10.32-25.6,10.3-30.26a50.93,50.93,0,0,0-9-28.18c-.73-1-1.37-1.83-1.55-2.06-6.3-7.91-13.65-11.64-18.48-14-13-6.43-26.48-7.66-32.27-8H273.5v41.4a72.5,72.5,0,0,0-133,4.65v-46l-70,95-70-95v145h29v-58l41,56,41-56v58h29V100.47a72.5,72.5,0,0,0,133,4.65v41.4h29V85.27l39.75,61.25h55.5c3.17-7.16,6.33-14.33,9.5-22h48.53c3.07,7.67,6.15,14.84,9.22,22h34.8q21.88,0,43.43-.38c4.91-1,29.67-6.5,45.25-27.84l-12.75,28.22h32q16.77-36.12,33.52-72.25,16.86,36.14,33.73,72.25h34.25Q675.24,74,641.23,1.52Z"/><path class="cls-1" d="M646,109.38l-9.24-.07v12.53H627q0,4.78-.08,9.59l9.84-.12v15.15h10V131.31h9.49c0-3.16,0-6.32,0-9.47L646,121.71Z"/><g id="Igreja"><path class="cls-2" d="M349.28,198.54h-2.93V168.26h2.93Z"/><path class="cls-2" d="M383.68,194.94a8.24,8.24,0,0,1-1.36,1.27,10.45,10.45,0,0,1-2.38,1.31,20,20,0,0,1-3.52,1,25,25,0,0,1-4.78.41,15.81,15.81,0,0,1-5.61-1,12.68,12.68,0,0,1-4.39-2.77,12.55,12.55,0,0,1-2.87-4.36,15.33,15.33,0,0,1-1-5.74v-3.68a16.14,16.14,0,0,1,.93-5.63,11.91,11.91,0,0,1,2.67-4.29,12.08,12.08,0,0,1,4.23-2.72,15.35,15.35,0,0,1,5.59-1,17.42,17.42,0,0,1,5.09.68A11.53,11.53,0,0,1,380,170.4a9.32,9.32,0,0,1,2.45,2.84,10.49,10.49,0,0,1,1.19,3.55h-2.93a9.21,9.21,0,0,0-.9-2.58,6.81,6.81,0,0,0-1.79-2.16,9,9,0,0,0-2.81-1.47,13,13,0,0,0-4-.55,11.45,11.45,0,0,0-4.49.82,9.28,9.28,0,0,0-3.3,2.31,9.75,9.75,0,0,0-2,3.58,14.9,14.9,0,0,0-.69,4.66v3.72a14.09,14.09,0,0,0,.78,4.82,10.6,10.6,0,0,0,2.23,3.67,10,10,0,0,0,3.46,2.35,11.81,11.81,0,0,0,4.49.83,21.58,21.58,0,0,0,3.53-.26,16.44,16.44,0,0,0,2.64-.65,9.36,9.36,0,0,0,1.84-.86,5.5,5.5,0,0,0,1.11-.87l0-10h2.89Z"/><path class="cls-2" d="M404.93,185.94H394.87v12.6h-2.95V168.26h11.25a18.85,18.85,0,0,1,4.89.58,10.87,10.87,0,0,1,3.71,1.72,7.72,7.72,0,0,1,2.36,2.79,8.66,8.66,0,0,1,.82,3.83,7.56,7.56,0,0,1-.53,2.82,7.82,7.82,0,0,1-1.47,2.38,9.12,9.12,0,0,1-2.27,1.83,11.31,11.31,0,0,1-2.92,1.18l8.66,12.88v.27h-3.11Zm-10.06-2.19h9a10.64,10.64,0,0,0,3.55-.54,7.61,7.61,0,0,0,2.56-1.44,6,6,0,0,0,1.54-2.1,6.3,6.3,0,0,0,.51-2.49,6.72,6.72,0,0,0-.57-2.81,5.69,5.69,0,0,0-1.7-2.12,8.18,8.18,0,0,0-2.78-1.34,13.85,13.85,0,0,0-3.78-.47h-8.3Z"/><path class="cls-2" d="M442.05,184h-16.2v12.35h18.63v2.17H422.92V168.26h21.44v2.18H425.85v11.42h16.2Z"/><path class="cls-2" d="M465.94,168.26h2.95v21.27a9.72,9.72,0,0,1-.8,4.05,8.41,8.41,0,0,1-2.19,2.95,9.35,9.35,0,0,1-3.32,1.81,13.58,13.58,0,0,1-4.16.61,16,16,0,0,1-4.29-.53,9,9,0,0,1-3.29-1.62,7.55,7.55,0,0,1-2.13-2.73,9.12,9.12,0,0,1-.76-3.87h2.93a6.06,6.06,0,0,0,2,4.94,8.45,8.45,0,0,0,5.57,1.65,8.88,8.88,0,0,0,2.94-.47,6.84,6.84,0,0,0,2.39-1.38,6.44,6.44,0,0,0,1.6-2.27,7.82,7.82,0,0,0,.59-3.14Z"/><path class="cls-2" d="M495.63,190.05H479.9l-3.57,8.49h-3.07l13.11-30.28h2.79l13.11,30.28h-3Zm-14.82-2.18H494.7l-6.95-16.49Z"/></g><g id="Batista"><path class="cls-3" d="M518.14,198.54V168.26h12.13a26.54,26.54,0,0,1,5.4.5,12.34,12.34,0,0,1,4,1.53,7.09,7.09,0,0,1,2.52,2.59,7.42,7.42,0,0,1,.87,3.68,6.57,6.57,0,0,1-.3,2,6.15,6.15,0,0,1-.9,1.79,6.91,6.91,0,0,1-1.54,1.51,8.31,8.31,0,0,1-2.21,1.11,8.16,8.16,0,0,1,2.6,1,6.85,6.85,0,0,1,1.79,1.57,6.13,6.13,0,0,1,1,1.94,8.2,8.2,0,0,1-2.93,8.81q-3.24,2.25-9.24,2.25Zm7.14-17.6h5.28a7.14,7.14,0,0,0,4.07-1,3.24,3.24,0,0,0,1.33-2.76,3.29,3.29,0,0,0-1.37-3,7.94,7.94,0,0,0-4.32-.91h-5Zm0,4.41v8.18h6.11a8,8,0,0,0,2.38-.31,4.84,4.84,0,0,0,1.67-.83,3.27,3.27,0,0,0,1-1.25,3.68,3.68,0,0,0,.32-1.57,5.06,5.06,0,0,0-.28-1.75,3.29,3.29,0,0,0-.89-1.33,4.16,4.16,0,0,0-1.59-.85,8.32,8.32,0,0,0-2.33-.29Z"/><path class="cls-3" d="M568.79,192.3H556.28l-2.38,6.24h-7.59l12.9-30.28h6.61l13,30.28H571.2Zm-10.58-5.05h8.66l-4.36-11.34Z"/><path class="cls-3" d="M605.24,173.31H594.63v25.23H587.5V173.31H577v-5.05h28.21Z"/><path class="cls-3" d="M616.9,198.54h-7.14V168.26h7.14Z"/><path class="cls-3" d="M641.48,190.59a3.78,3.78,0,0,0-.26-1.42,2.89,2.89,0,0,0-1-1.18,9.82,9.82,0,0,0-2.07-1.06c-.88-.34-2-.71-3.42-1.1a43.54,43.54,0,0,1-4.48-1.5,16.69,16.69,0,0,1-3.69-2,9.35,9.35,0,0,1-2.5-2.61,6.39,6.39,0,0,1-.91-3.45,6.56,6.56,0,0,1,.94-3.46,8.13,8.13,0,0,1,2.64-2.68,13.93,13.93,0,0,1,4-1.71,20.25,20.25,0,0,1,5.15-.62,18.61,18.61,0,0,1,5.24.7,12.75,12.75,0,0,1,4,1.94,9,9,0,0,1,2.57,3,7.93,7.93,0,0,1,.9,3.75H641.5a4.47,4.47,0,0,0-.34-1.77A3.57,3.57,0,0,0,640.1,174a5,5,0,0,0-1.78-.9,8.67,8.67,0,0,0-2.53-.33,9.64,9.64,0,0,0-2.43.27,5.25,5.25,0,0,0-1.72.75,3.3,3.3,0,0,0-1,1.13,2.85,2.85,0,0,0-.35,1.37,2.92,2.92,0,0,0,1.75,2.5,21.46,21.46,0,0,0,5.13,1.89,36.45,36.45,0,0,1,5,1.7,15.27,15.27,0,0,1,3.6,2.12,8.19,8.19,0,0,1,2.17,2.66,7.3,7.3,0,0,1,.74,3.35,7.1,7.1,0,0,1-.89,3.56,7.73,7.73,0,0,1-2.53,2.63,13,13,0,0,1-4,1.64,21.65,21.65,0,0,1-5.17.57,22.1,22.1,0,0,1-3.43-.26,18.17,18.17,0,0,1-3.27-.8,15,15,0,0,1-2.89-1.35,10.33,10.33,0,0,1-2.32-1.91,8.28,8.28,0,0,1-1.54-2.51,8.16,8.16,0,0,1-.56-3.11h7.16a4.87,4.87,0,0,0,.5,2.33,4,4,0,0,0,1.39,1.55,6.06,6.06,0,0,0,2.15.86,13.47,13.47,0,0,0,2.81.27,9.48,9.48,0,0,0,2.4-.26,5.28,5.28,0,0,0,1.69-.71,2.91,2.91,0,0,0,1-1.09A3.07,3.07,0,0,0,641.48,190.59Z"/><path class="cls-3" d="M679.55,173.31H668.94v25.23H661.8V173.31H651.33v-5.05h28.22Z"/><path class="cls-3" d="M700.32,192.3H687.81l-2.38,6.24h-7.59l12.89-30.28h6.62l13,30.28h-7.59Zm-10.59-5.05h8.66L694,175.91Z"/></g></g></g></svg>