<?xml version="1.0" encoding="utf-8"?>
<!-- Generator: Adobe Illustrator 22.1.0, SVG Export Plug-In . SVG Version: 6.00 Build 0)  -->
<svg version="1.1" id="Camada_2_1_" xmlns="http://www.w3.org/2000/svg" xmlns:xlink="http://www.w3.org/1999/xlink" x="0px"
	 y="0px" viewBox="0 0 966.5 218.5" style="enable-background:new 0 0 966.5 218.5;" xml:space="preserve">
<style type="text/css">
	.st0{fill:#F9F9FA;stroke:#004C8A;stroke-miterlimit:10;}
	.st1{fill:#004C8A;}
	.st2{fill:url(#SVGID_1_);}
	.st3{display:none;fill:#DB6161;}
	.st4{fill:#091E64;}
	.st5{fill:#005998;}
	.st6{fill:#0089CB;}
	.st7{fill:#1199CE;}
	.st8{fill:#FFFFFF;}
	.st9{opacity:0.99;}
</style>
<g id="Camada_3">
	<path class="st0" d="M271.9,103.4c-21.4,42.1-77.5,79.4-90.4,87.7l-0.3,0.2c-11,6.9-26.3,16.2-45.2,26.5c-2.5-4.9-5.4-9.5-8.7-13.8
		c-4.2-5.4-9-10.2-14.3-14.4l-0.2-0.2c-0.9-0.7-1.8-1.4-2.7-2l0,0c-13.5-10.4-51-39.5-71.3-60.8c-4.6-4.7-8.7-9.9-12.3-15.4
		c-5.2-8.1-12.6-19.5-13.4-34.6C13,74,12.2,55.7,24.5,39.9c14.9-19.2,43.7-27.8,73-22.3c-2.5-0.4-5-0.7-7.5-0.8
		c-28.4-1.2-52.8,17.7-58.4,39.1c-5.9,22.4,9.7,43.2,13.7,48.6c3,4,6.3,7.6,10,10.9c24.9,22.4,71.5,51.8,89,62.6
		c14.8-9.8,61.8-41.1,89-62.6c4.1-3.2,7.9-6.9,11.1-11c3.5-4.4,19.2-24.5,12.7-48.2c-5.5-20-24.9-35.8-47.1-38.8
		c-6.3-0.8-12.7-0.6-18.9,0.6c4.5-0.9,45.3-8.4,71.3,16.4c3,2.9,14.8,14.4,17.4,32.3C280.5,71.2,281.8,84.1,271.9,103.4z"/>
	<path class="st1" d="M291.8,85.4C281.7,127,186.2,188.1,186.2,188.1c-1.4,0.9-3,1.9-4.7,3c12.9-8.3,68.9-45.7,90.4-87.7
		c9.8-19.3,8.6-32.2,7.9-36.7c-2.6-18-14.3-29.5-17.4-32.4c-26-24.8-66.8-17.3-71.3-16.4h-0.2c-21.4,4.3-39.1,19.4-46.6,39.9
		c-6-21.1-24.7-36.9-46.9-40.5l0,0c-29.3-5.5-58.1,3.1-73,22.3C12.2,55.5,13,73.9,13.1,76.5c0.8,15.2,8.2,26.5,13.4,34.6
		c3.6,5.5,7.7,10.7,12.3,15.4c20.3,21.3,57.7,50.4,71.3,60.8c-7.1-5.3-15.3-10.1-25.5-16.4C65.3,159,55.7,153,47,146.3
		c-15.6-12.1-30.9-23.9-39.3-40.8C-3.7,82.3-5.7,41.7,24.3,17.1C49.9-3.8,86.2-3.1,107.4,6.2c4,1.8,17,7.6,25.3,19.1
		c1.9,2.6,5.4,9.2,8.8,16.4c1.2,2.6,2.2,4.9,2.8,6.4c0.6-1.5,1.5-3.7,2.7-6.2c2.2-4.7,4.9-11,9.4-16.2c4.1-4.6,8.9-8.5,14.2-11.6
		c37.4-22,71.6-11,71.6-11s21.9,7.1,36,25.2c3.8,5.1,7,10.6,9.6,16.5c1.2,2.8,2.2,5.7,3.1,8.7c0.7,2.4,1.2,4.8,1.7,7.3
		C293.9,69,293.6,77.3,291.8,85.4z"/>
	
		<linearGradient id="SVGID_1_" gradientUnits="userSpaceOnUse" x1="144.4759" y1="-531.5" x2="144.4759" y2="-367.8466" gradientTransform="matrix(1 0 0 -1 0 -352)">
		<stop  offset="0.2615" style="stop-color:#AA1A17"/>
		<stop  offset="0.6436" style="stop-color:#D93127"/>
	</linearGradient>
	<path class="st2" d="M245.7,104.8c-3.2,4.2-7.1,7.9-11.3,11.2c-27.6,21.8-75.2,53.5-90.2,63.5c-17.7-11-65-40.8-90.2-63.5
		c-3.8-3.3-7.2-7-10.1-11.1C39.8,99.4,24,78.3,30,55.6c5.7-21.7,30.4-40.9,59.2-39.7c2.5,0.1,5.1,0.3,7.6,0.8l0,0
		c22.6,3.7,41.5,19.6,47.6,41.1C152,37,170,21.7,191.6,17.3h0.2c6.3-1.2,12.8-1.4,19.2-0.6c22.5,2.9,42.2,19.1,47.8,39.3
		C265.2,79.9,249.2,100.2,245.7,104.8z"/>
	<path class="st3" d="M185.7,29.2c2-0.2,28.8-1.8,44.9,19.3c11.2,14.7,10.1,31.1,9.7,35.2c1-1.7,11.5-20.7,2.8-38
		C234.4,28.3,209.5,19.4,185.7,29.2z"/>
	<path class="st4" d="M144.3,57.8c-10.8,19.5-15.3,27.5-15.7,28l-0.4,0.5l-0.9,1.4c-1.8,2.7-4.7,7.3-8.1,13.5
		c-1.3,2.3-2.5,4.6-3.9,7.3s-6.7,14.3-2,27.2c3.7,10.2,14.3,23.1,30.5,23.3c15.7,0.3,27.6-11.5,31.6-23c4.4-12.8-1.5-23.9-2.9-26.5
		c-3.1-5.6-4.9-9.4-8.1-15c-2.4-4.3-4.2-7.3-4.9-8.4C156.2,80.6,151.2,71.8,144.3,57.8z"/>
	<path class="st5" d="M144.3,68.5c-3.8,6.3-6.8,13.1-8.9,20.2c-2.9,9.9-8.5,28.7,1.5,39.3c5.9,6.7,15.6,8.3,23.3,4
		c2.4-1.3,4.4-3.2,5.7-5.6c1.4-2.5,1.9-5.4,1.6-8.3c-0.2-3-1.1-5.9-2.7-8.5c-3.8-7.6-7.7-15.2-11.5-22.8L144.3,68.5z"/>
	<path class="st6" d="M137.5,150.6c2,0.5,8.5,2.3,15.2-0.1c11.5-4.1,13.9-17.1,14-17.7c-0.6,0.5-11.1,9-23.5,5.5
		c-5-1.5-9.3-4.6-12.3-8.8c-1.1-1.6-3.1-5-3.5-13.1c-0.4-8.3,0.9-16.7,3.9-24.5c-4.4,6.5-7.8,13.7-10,21.3
		c-1.9,6.7-3.5,12.4-1.6,19.4c1.1,4.6,3.5,8.9,7,12.1C129.8,147.5,133.5,149.5,137.5,150.6z"/>
	<path class="st7" d="M145.3,84.6c-2,10.1-1.9,18.4-1.4,24c0.7,8.1,2.2,10.6,4.2,11.7c2.9,1.6,7.8,0.9,9.8-1.8
		c0.3-0.4,1.2-1.8,1.2-4.3C158.9,105.3,147.2,87.4,145.3,84.6z"/>
</g>
<g id="Camada_6">
	<g>
		<path class="st8" d="M413.9,64H412l3.5-22.9h1.9L413.9,64z"/>
		<path class="st8" d="M438,60.9c-0.8,1-1.9,1.8-3.1,2.3c-1.7,0.7-3.5,1.1-5.3,1c-2.3,0.1-4.5-0.9-6-2.7c-1.5-2-2.1-4.6-1.5-7
			l0.6-4.2c0.3-2.6,1.5-5.1,3.4-6.9c1.8-1.7,4.2-2.6,6.7-2.6c2-0.1,4,0.6,5.5,2c1.3,1.3,1.8,3.2,1.4,5v0.1H438c0.3-1.4-0.1-2.9-1-4
			c-1.2-1.1-2.8-1.6-4.4-1.5c-2,0-3.9,0.8-5.3,2.2c-1.5,1.5-2.5,3.5-2.8,5.7l-0.6,4.2c-0.5,2-0.1,4.2,1,5.9c1.1,1.5,2.9,2.3,4.8,2.2
			c1.4,0,2.7-0.2,4-0.7c0.9-0.4,1.8-0.9,2.4-1.7l0.9-5.9h-6.2l0.2-1.6h8.1L438,60.9z"/>
		<path class="st8" d="M447.8,53.7L446.3,64h-1.9l3.4-22.9h7.6c1.9-0.1,3.8,0.4,5.3,1.6c1.3,1.2,1.8,3,1.4,4.7
			c-0.2,1.2-0.7,2.4-1.5,3.3c-0.9,1-2,1.7-3.3,2.1c1.1,0.2,2.1,0.9,2.8,1.8c0.5,1.1,0.7,2.2,0.5,3.4l-0.3,2.2
			c-0.1,0.6-0.1,1.3-0.1,1.9c0.1,0.5,0.3,1,0.7,1.4l-0.1,0.4h-1.9c-0.4-0.5-0.6-1-0.6-1.6c0-0.7,0-1.4,0.1-2.1l0.3-2.1
			c0.3-1.2,0-2.5-0.8-3.4c-1-0.9-2.3-1.3-3.7-1.1L447.8,53.7L447.8,53.7z M448.1,52.1h5.5c1.6,0.1,3.3-0.4,4.7-1.3
			c1.1-0.8,1.8-2,2-3.4c0.3-1.2,0-2.6-0.9-3.5c-0.8-0.8-2.2-1.2-4.1-1.2h-5.7L448.1,52.1z"/>
		<path class="st8" d="M480.3,52.9H470l-1.4,9.5h11.9l-0.3,1.6h-13.7l3.4-22.9h13.7l-0.2,1.6h-11.8l-1.3,8.6h10.2L480.3,52.9z"/>
		<path class="st8" d="M498.6,41.1h1.9l-2.4,16.3c-0.2,2-1.1,3.8-2.6,5.2c-1.4,1.2-3.2,1.9-5.1,1.8c-1.7,0.1-3.5-0.5-4.7-1.7
			c-1.1-1.1-1.4-2.7-1-4.8v-0.1h1.8c-0.3,1.8,0,3.1,0.7,3.8c1,0.9,2.2,1.3,3.5,1.2c1.4,0,2.6-0.5,3.6-1.5c1.1-1,1.8-2.4,2-3.9
			L498.6,41.1z"/>
		<path class="st8" d="M516.5,57.6h-10l-3.3,6.4h-2L513,41.1h1.8l4.9,22.9h-2L516.5,57.6z M507.3,55.9h8.8l-2.5-12.1h-0.1
			L507.3,55.9z"/>
		<path class="st8" d="M533.2,64l3.4-22.9h6.7c1.9-0.1,3.8,0.4,5.3,1.5c1.3,1.1,1.8,2.9,1.4,4.5c-0.1,1.2-0.6,2.2-1.4,3.1
			c-0.8,0.8-1.8,1.5-2.9,1.8c1.3,0.1,2.5,0.8,3.2,1.9c0.7,1.1,1,2.5,0.8,3.8c-0.2,1.9-1.2,3.6-2.7,4.8c-1.6,1.1-3.6,1.7-5.6,1.6
			L533.2,64z M536.7,53l-1.4,9.4h6.4c1.5,0,2.9-0.4,4.1-1.3c1.1-0.8,1.8-2.1,2-3.5c0.3-1.2-0.1-2.5-0.9-3.4c-1-0.9-2.3-1.4-3.6-1.3
			L536.7,53L536.7,53z M536.9,51.4h5.5c1.4,0,2.7-0.4,3.8-1.1c1-0.8,1.7-1.9,1.8-3.2c0.3-1.2,0-2.4-0.9-3.3c-1.2-0.8-2.7-1.2-4.1-1
			h-4.7L536.9,51.4z"/>
		<path class="st8" d="M567,57.6h-10l-3.3,6.4h-2l11.8-22.9h1.8l5,22.9h-2L567,57.6z M557.8,55.9h8.8l-2.5-12.1H564L557.8,55.9z"/>
		<path class="st8" d="M591.5,42.7h-7.8L580.6,64h-1.9l3.2-21.3h-8l0.2-1.6h17.7L591.5,42.7z"/>
		<path class="st8" d="M595.4,64h-1.9l3.4-22.9h1.9L595.4,64z"/>
		<path class="st8" d="M616.9,59c0.3-1.2-0.1-2.4-0.9-3.3c-1.4-1.1-3-1.9-4.6-2.4c-1.9-0.5-3.7-1.5-5.3-2.8
			c-1.1-1.2-1.6-2.9-1.2-4.5c0.2-1.6,1.2-3.1,2.5-3.9c1.5-1,3.3-1.5,5.2-1.4c2-0.1,3.9,0.5,5.4,1.8c1.3,1.3,1.9,3.2,1.4,5v0.1h-1.8
			c0.3-1.4-0.1-2.8-1.1-3.8c-1.1-1-2.7-1.6-4.2-1.5c-1.3,0-2.6,0.3-3.7,1.1c-0.9,0.6-1.6,1.5-1.8,2.6c-0.3,1.1,0,2.4,0.8,3.3
			c1.4,1.1,2.9,1.9,4.6,2.4c2,0.6,3.8,1.5,5.3,2.8c1.1,1.2,1.6,2.8,1.2,4.4c-0.2,1.7-1.2,3.1-2.6,4c-1.7,1-3.6,1.4-5.5,1.4
			c-2,0.1-4.1-0.5-5.7-1.7c-1.6-1.1-2.1-2.8-1.7-5.2v-0.1h1.7c-0.3,1.9,0.2,3.3,1.4,4.1c1.4,0.8,2.9,1.3,4.5,1.2c1.4,0,2.8-0.3,4-1
			C615.9,61.2,616.7,60.2,616.9,59z"/>
		<path class="st8" d="M641.9,42.7h-7.8L630.9,64h-1.8l3.2-21.3h-8l0.2-1.6h17.7L641.9,42.7z"/>
		<path class="st8" d="M655.1,57.6h-10l-3.3,6.4h-2l11.8-22.9h1.8l4.9,22.9h-2L655.1,57.6z M645.9,55.9h8.8l-2.5-12.1h-0.1
			L645.9,55.9z"/>
	</g>
	<g>
		<path class="st8" d="M788.2,187H778l-1.4,9.4h11.7l-0.2,1.6h-13.6l3.4-22.6h13.5l-0.2,1.6h-11.7l-1.3,8.5h10.2L788.2,187z"/>
		<path class="st8" d="M804.4,195.2L804.4,195.2l11.5-19.9h2.3l-3.4,22.6H813l2.8-19h-0.1l-11,19h-1.3l-5.4-19.5h-0.1l-2.9,19.5
			h-1.9l3.4-22.7h2.5L804.4,195.2z"/>
		<path class="st8" d="M847,190.8L847,190.8c-0.2,2.2-1.3,4.2-2.9,5.5c-1.8,1.3-4,2-6.2,1.9c-2.2,0.1-4.3-0.9-5.6-2.8
			c-1.4-2.1-1.8-4.6-1.3-7l0.6-3.7c0.3-2.7,1.5-5.2,3.4-7.1c1.7-1.7,4.1-2.7,6.5-2.7c2-0.1,4,0.6,5.5,2c1.4,1.4,1.9,3.4,1.4,5.3v0.1
			h-1.8c0.4-1.5,0-3.1-1-4.3c-1.2-1.1-2.8-1.6-4.4-1.5c-2,0-3.8,0.8-5.1,2.3c-1.5,1.6-2.5,3.7-2.7,5.9l-0.6,3.7
			c-0.4,2-0.1,4.2,0.9,6c1,1.5,2.7,2.3,4.5,2.2c1.7,0.1,3.4-0.5,4.8-1.5c1.3-1.1,2.2-2.6,2.4-4.3L847,190.8z"/>
		<path class="st8" d="M865.4,187h-10.2l-1.4,9.4h11.7l-0.2,1.6h-13.6l3.4-22.6h13.5l-0.2,1.6h-11.7l-1.3,8.5h10.2L865.4,187z
			 M864.9,168.9h2.3v0.1l-4.5,4.1h-1.6V173L864.9,168.9z"/>
		<path class="st8" d="M872.4,196.3h11.7l-0.2,1.6h-13.6l3.4-22.6h1.9L872.4,196.3z"/>
		<path class="st8" d="M907.4,175.3l-2.3,15c-0.2,2.3-1.4,4.4-3.1,5.9c-1.8,1.4-4,2.1-6.2,2c-2,0.1-4-0.7-5.4-2.1
			c-1.4-1.6-1.9-3.8-1.4-5.8l2.3-15h1.9l-2.2,15c-0.4,1.6,0,3.4,1,4.7c1.1,1.2,2.6,1.8,4.2,1.7c3.7,0,6.8-2.7,7.3-6.4l2.3-15
			L907.4,175.3z"/>
		<path class="st8" d="M912.5,196.3h11.7l-0.2,1.6h-13.6l3.4-22.6h1.9L912.5,196.3z"/>
		<path class="st8" d="M942.1,191.6h-9.9l-3.2,6.3h-2l11.7-22.6h1.7l4.9,22.6h-1.9L942.1,191.6z M933,189.9h8.7l-2.5-12h-0.1
			L933,189.9z"/>
		<path class="st8" d="M963.8,193c0.3-1.2-0.1-2.4-0.9-3.2c-1.4-1.1-2.9-1.9-4.6-2.4c-1.9-0.5-3.7-1.5-5.2-2.7
			c-1.1-1.2-1.6-2.8-1.2-4.4c0.2-1.6,1.1-3,2.5-3.9c1.5-1,3.3-1.5,5.1-1.4c2-0.1,3.9,0.5,5.4,1.8c1.3,1.3,1.9,3.2,1.4,4.9v0.1h-1.7
			c0.3-1.4-0.1-2.8-1.1-3.8c-1.1-1-2.6-1.5-4.2-1.5c-1.3,0-2.6,0.3-3.7,1.1c-0.9,0.6-1.6,1.5-1.8,2.6c-0.3,1.1,0,2.3,0.8,3.2
			c1.3,1.1,2.9,1.9,4.6,2.3c1.9,0.5,3.7,1.5,5.3,2.8c1.1,1.1,1.6,2.8,1.2,4.4c-0.2,1.6-1.2,3.1-2.6,3.9c-1.6,1-3.5,1.4-5.4,1.4
			c-2,0.1-4-0.5-5.7-1.6c-1.5-1.1-2.1-2.8-1.7-5.1v-0.1h1.7c-0.3,1.9,0.2,3.3,1.4,4.1c1.3,0.8,2.9,1.3,4.5,1.2c1.4,0,2.8-0.3,4-1.1
			C962.9,195.1,963.6,194.1,963.8,193z"/>
	</g>
	<g class="st9">
		<path class="st8" d="M304.8,158.8l45.4-118.4h23.7l45.5,118.4h-32l-5.9-17.1h-39.1l-6,17.1H304.8z M354.1,29.6
			c4.1-6.6,8.2-13.1,12.3-19.7l16.7,0.1c-4,6.5-7.9,13-11.9,19.5C365.5,29.5,359.8,29.5,354.1,29.6z M350.2,117.2h23.5l-11.7-38
			L350.2,117.2z"/>
		<path class="st8" d="M408.6,117.4c-0.2-11.5,4.4-22.5,12.8-30.4c7-7.2,16.7-11.3,26.8-11.2c9.3,0,16.7,3.4,22.1,10.3V77h23.9v73.5
			c0,3.5,0,6.2-0.1,8s-0.3,4-0.7,6.7c-0.3,2.4-1,4.8-2,7.1c-1,2.2-2.3,4.3-3.7,6.2c-7.9,10.1-19.6,15.1-35.1,15.1
			c-11,0-20-2.5-27.2-7.6c-7-4.8-11.7-12.2-13.1-20.5h27.6c0.7,2.7,2.3,5.1,4.7,6.6c2.7,1.7,5.8,2.5,8.9,2.4c5.3,0,9.5-1.7,12.5-5.2
			s4.5-8.3,4.5-14.7c0-1.9,0-3.4-0.1-4.3c-6.6,6-13.9,9.1-22.1,9.1c-10.7,0.2-20.9-4.1-28.1-12C412.3,139.2,408.6,129.3,408.6,117.4
			z M432.4,117.4c-0.1,5.4,2,10.7,5.8,14.6c3.6,3.9,8.7,6.1,14,6c5.1,0.1,10.1-2,13.5-5.8c3.7-3.9,5.7-9.1,5.5-14.4
			c0.2-5.4-1.8-10.7-5.5-14.7c-3.3-3.8-8-5.9-13-5.9c-10.9-0.4-19.9,8.1-20.3,19C432.4,116.6,432.4,117,432.4,117.4z"/>
		<path class="st8" d="M496.8,130.9v-54h24.3v44.4c0,6,0.8,10.2,2.5,12.8s4.7,3.8,9.2,3.8c9.5,0,14.3-5.5,14.3-16.6V76.9H571v81.9
			h-23.9v-10.9c-4.8,8.3-12.2,12.5-22.2,12.5c-8.6,0-15.4-2.6-20.5-7.8S496.8,140.1,496.8,130.9z"/>
		<path class="st8" d="M572.7,117.5c-0.1-11.5,4.6-22.6,13-30.5c7.1-7.3,17-11.4,27.2-11.2c9.9,0,17.6,3.5,23,10.3v-9.2h24.6v81.9
			h-23.8v-9.1c-3.1,3.2-6.9,5.7-11,7.4c-4.2,1.6-8.7,2.3-13.2,2.2c-9.4,0.2-18.5-3.3-25.5-9.6C577.7,141.6,572.5,129.8,572.7,117.5z
			 M596.6,117.3c-0.1,5.4,2,10.7,6,14.4c4.1,3.8,9.6,5.9,15.2,5.7c5.1,0.1,10-2,13.5-5.7c3.7-3.7,5.7-8.8,5.6-14.1
			c0.2-5.5-1.9-10.8-5.7-14.7c-3.7-3.9-8.9-6-14.2-5.9c-5.4-0.1-10.6,2.1-14.4,6C598.8,106.8,596.6,111.9,596.6,117.3L596.6,117.3z"
			/>
		<path class="st8" d="M679.3,40.4h28.9l22.4,79.3l22.3-79.3h28.9l-35.6,118.4h-31.4L679.3,40.4z"/>
		<path class="st8" d="M780.2,69.5v-19h23.9v19H780.2z M780.2,158.8V76.9h23.9v81.9H780.2z"/>
		<path class="st8" d="M804.8,76.9h26.3l15.3,52.9l16.2-52.9h25.5l-29.7,81.9h-24.3L804.8,76.9z"/>
		<path class="st8" d="M878.7,117.5c-0.1-11.5,4.6-22.6,13-30.5c7.1-7.3,17-11.4,27.2-11.2c9.9,0,17.6,3.5,23,10.3v-9.2h24.6v81.9
			h-23.8v-9.1c-3.1,3.2-6.9,5.7-11,7.4c-4.2,1.6-8.7,2.3-13.2,2.2c-9.4,0.2-18.5-3.3-25.5-9.6C883.5,141.1,878.8,130.4,878.7,117.5z
			 M902.6,117.3c-0.1,5.4,2,10.7,6,14.4c4.1,3.8,9.6,5.9,15.2,5.7c5.1,0.1,10-2,13.5-5.7c3.7-3.7,5.7-8.8,5.6-14.1
			c0.2-5.5-1.9-10.8-5.7-14.7c-3.7-3.9-8.9-6-14.2-5.9c-5.4-0.1-10.6,2.1-14.4,6C904.8,106.8,902.6,111.9,902.6,117.3L902.6,117.3z"
			/>
	</g>
</g>
</svg>
