<svg xmlns="http://www.w3.org/2000/svg" viewBox="0 0 712.37 184.56"><defs><style>.cls-1{fill:#fff;}</style></defs><title>Ativo 18</title><g id="Camada_2" data-name="Camada 2"><g id="Camada_2-2" data-name="Camada 2"><g id="A"><path id="A-2" data-name="A" class="cls-1" d="M641.91.65q-32.76,72.5-65.5,145h32L641.92,73.4q16.88,36.12,33.74,72.25h34.25Q675.91,73.15,641.91.65Z"/><polygon class="cls-1" points="657 119.38 647 119.38 647 108.5 637.5 108.5 637.5 119.38 627.5 119.38 627.5 128.77 637.5 128.77 637.5 145.65 647 145.65 647 128.77 657 128.77 657 119.38"/></g><path class="cls-1" d="M396.13,184.19h-2.59V157.35h2.59Z"/><path class="cls-1" d="M426.63,181a7.2,7.2,0,0,1-1.21,1.12,9.33,9.33,0,0,1-2.11,1.17,18.42,18.42,0,0,1-3.12.9,22,22,0,0,1-4.23.37,14,14,0,0,1-5-.86,11.24,11.24,0,0,1-3.89-2.45,11,11,0,0,1-2.54-3.86,13.53,13.53,0,0,1-.91-5.09V169a14.56,14.56,0,0,1,.82-5,10.26,10.26,0,0,1,6.12-6.21,13.58,13.58,0,0,1,5-.85,15.44,15.44,0,0,1,4.51.6,10,10,0,0,1,3.33,1.67,8.25,8.25,0,0,1,2.18,2.51,9.44,9.44,0,0,1,1.05,3.15H424a8.57,8.57,0,0,0-.81-2.29,6.09,6.09,0,0,0-1.58-1.91,8,8,0,0,0-2.5-1.31,11.68,11.68,0,0,0-3.57-.48,10.29,10.29,0,0,0-4,.72,8.25,8.25,0,0,0-2.92,2.05,8.85,8.85,0,0,0-1.8,3.18,13.12,13.12,0,0,0-.61,4.13v3.3a12.54,12.54,0,0,0,.69,4.27,9.41,9.41,0,0,0,2,3.25A8.74,8.74,0,0,0,412,181.9a10.46,10.46,0,0,0,4,.74,19.12,19.12,0,0,0,3.12-.23,14.27,14.27,0,0,0,2.34-.58,8.16,8.16,0,0,0,1.64-.76,5.14,5.14,0,0,0,1-.77l0-8.85h2.56Z"/><path class="cls-1" d="M445.47,173h-8.93v11.17h-2.61V157.35h10a17,17,0,0,1,4.33.51,9.81,9.81,0,0,1,3.29,1.53,6.8,6.8,0,0,1,2.09,2.47,7.69,7.69,0,0,1,.73,3.4,6.68,6.68,0,0,1-.47,2.49,7,7,0,0,1-1.31,2.12,8.5,8.5,0,0,1-2,1.62,10.57,10.57,0,0,1-2.58,1L455.65,184v.24h-2.76Zm-8.93-1.94h8a9.48,9.48,0,0,0,3.15-.48,6.73,6.73,0,0,0,2.27-1.28,5.26,5.26,0,0,0,1.36-1.86,5.59,5.59,0,0,0,.45-2.2,5.86,5.86,0,0,0-.51-2.49,4.88,4.88,0,0,0-1.5-1.88,7.23,7.23,0,0,0-2.46-1.19,12.13,12.13,0,0,0-3.35-.42h-7.37Z"/><path class="cls-1" d="M478.37,171.32H464v11h16.51v1.92H461.41V157.35h19v1.93H464V169.4h14.36Z"/><path class="cls-1" d="M484.11,157.35h16.15v18.86a9.69,9.69,0,0,1-.62,3.58,7.45,7.45,0,0,1-1.69,2.62,6.87,6.87,0,0,1-2.55,1.6,9.33,9.33,0,0,1-3.21.55,11,11,0,0,1-3.31-.47,6.9,6.9,0,0,1-2.54-1.44,6.57,6.57,0,0,1-1.64-2.43,9.13,9.13,0,0,1-.59-3.42h2.26a5.8,5.8,0,0,0,1.52,4.37,6,6,0,0,0,4.3,1.47,6.05,6.05,0,0,0,2.26-.42A5.19,5.19,0,0,0,496.3,181a5.78,5.78,0,0,0,1.23-2,7.48,7.48,0,0,0,.45-2.78c0-2.12,0-8.37,0-16.88H484.11Z"/><path class="cls-1" d="M522.06,176.67H508.12L505,184.19h-2.72l11.62-26.84h2.47L528,184.19h-2.7Zm-13.14-1.94h12.32l-6.16-14.62Z"/><path class="cls-1" d="M542,184.19V157.35h10.76a23.83,23.83,0,0,1,4.79.44,11,11,0,0,1,3.57,1.36,6.21,6.21,0,0,1,2.24,2.29,6.63,6.63,0,0,1,.77,3.26,6.06,6.06,0,0,1-.26,1.77,5.43,5.43,0,0,1-.81,1.59,6,6,0,0,1-1.36,1.34,7.48,7.48,0,0,1-2,1,7.33,7.33,0,0,1,2.31.9,5.79,5.79,0,0,1,1.58,1.39,5.19,5.19,0,0,1,.91,1.72,6.49,6.49,0,0,1,.28,1.91,6.71,6.71,0,0,1-2.87,5.9c-1.92,1.32-4.65,2-8.2,2Zm6.33-15.6H553a6.32,6.32,0,0,0,3.61-.89,2.83,2.83,0,0,0,1.18-2.44,2.91,2.91,0,0,0-1.21-2.63,7.17,7.17,0,0,0-3.83-.8h-4.43Zm0,3.91v7.25h5.42a7.26,7.26,0,0,0,2.11-.27,4.56,4.56,0,0,0,1.48-.74,2.91,2.91,0,0,0,.87-1.11,3.32,3.32,0,0,0,.29-1.39,4.46,4.46,0,0,0-.26-1.55,2.74,2.74,0,0,0-.79-1.18,3.4,3.4,0,0,0-1.4-.75,7.35,7.35,0,0,0-2.07-.26Z"/><path class="cls-1" d="M586.92,178.66h-11.1l-2.11,5.53H567l11.43-26.84h5.86l11.5,26.84h-6.73Zm-9.39-4.48h7.68l-3.86-10.05Z"/><path class="cls-1" d="M619.23,161.83h-9.41v22.36H603.5V161.83h-9.28v-4.48h25Z"/><path class="cls-1" d="M629.56,184.19h-6.32V157.35h6.32Z"/><path class="cls-1" d="M651.35,177.15a3.42,3.42,0,0,0-.23-1.27,2.53,2.53,0,0,0-.9-1,8.52,8.52,0,0,0-1.83-.94c-.78-.31-1.79-.63-3-1a39.29,39.29,0,0,1-4-1.32,14.82,14.82,0,0,1-3.27-1.74,8,8,0,0,1-2.22-2.32,5.68,5.68,0,0,1-.81-3.06,5.92,5.92,0,0,1,.83-3.07,7.55,7.55,0,0,1,2.34-2.37,12.53,12.53,0,0,1,3.59-1.52,18.13,18.13,0,0,1,4.57-.54,16.43,16.43,0,0,1,4.64.62,11,11,0,0,1,3.56,1.72A7.92,7.92,0,0,1,656.9,162a7,7,0,0,1,.8,3.32h-6.33a4,4,0,0,0-.3-1.56,3.33,3.33,0,0,0-.94-1.24,4.6,4.6,0,0,0-1.58-.8,7.88,7.88,0,0,0-2.24-.28,8.58,8.58,0,0,0-2.16.24,4.74,4.74,0,0,0-1.52.66,2.94,2.94,0,0,0-.91,1,2.62,2.62,0,0,0-.3,1.22,2.56,2.56,0,0,0,1.55,2.22,18.92,18.92,0,0,0,4.54,1.67,32,32,0,0,1,4.42,1.51,13.57,13.57,0,0,1,3.19,1.88,7.36,7.36,0,0,1,1.93,2.36,6.62,6.62,0,0,1,.65,3,6.19,6.19,0,0,1-.79,3.15,6.85,6.85,0,0,1-2.25,2.33,11.24,11.24,0,0,1-3.51,1.46,19.08,19.08,0,0,1-4.59.51,20.61,20.61,0,0,1-3-.23,16.61,16.61,0,0,1-2.9-.71,13.44,13.44,0,0,1-2.57-1.2,9.19,9.19,0,0,1-2-1.7,7.24,7.24,0,0,1-1.37-2.22,7.39,7.39,0,0,1-.5-2.75h6.35a4.45,4.45,0,0,0,.44,2.06,3.71,3.71,0,0,0,1.24,1.37,5.43,5.43,0,0,0,1.91.77,11.79,11.79,0,0,0,2.48.24,8.84,8.84,0,0,0,2.13-.23,4.74,4.74,0,0,0,1.5-.64,2.61,2.61,0,0,0,.88-1A2.58,2.58,0,0,0,651.35,177.15Z"/><path class="cls-1" d="M685.1,161.83h-9.41v22.36h-6.33V161.83h-9.28v-4.48h25Z"/><path class="cls-1" d="M703.51,178.66H692.42l-2.11,5.53h-6.73L695,157.35h5.86l11.5,26.84h-6.73Zm-9.39-4.48h7.68l-3.86-10.05Z"/><path class="cls-1" d="M69.73,95.6,139.38,0V145.65h-28.6v-59l-41,56.67L28.6,86.68v59H0V0Z"/><path class="cls-1" d="M256.89,23.48q21.27,21.27,21.27,51.11t-21.27,51q-21.18,21-51,21t-51-21q-21.19-21.18-21.19-51t21.19-51.11q21.27-21.27,51-21.27T256.89,23.48Zm-81.65,20.3a42.11,42.11,0,0,0-12.71,30.63A41.71,41.71,0,0,0,175.24,105a43.35,43.35,0,0,0,61.17,0,41.41,41.41,0,0,0,12.8-30.63,41.83,41.83,0,0,0-12.8-30.63,43.15,43.15,0,0,0-61.17,0Z"/><path class="cls-1" d="M272.27,3.35H318.7c15.84,0,28.65,6,37.25,14.48,8.66,8.66,13.77,16.57,13.77,32.31v3.71q0,14.38-9,27.1c-5,7-9,10-17,13.15l33.1,51.55H341.83L301,82.71v62.94h-28.6Zm68,47.67a19.23,19.23,0,0,0-5.65-13.68c-3.71-3.61-10.76-5.65-17.66-5.65H300.87V71h11v.09h9.54C331.86,71.06,340.24,61.87,340.24,51Z"/><path class="cls-1" d="M430.56.44l65,145.21h-31L454.92,124H406.2l-9.63,21.63H365.68Zm13.06,98.34-13-30.1-13.16,30.1Z"/><path class="cls-1" d="M527.68,3.35c22.35,0,39.85,8.88,52,20.92q19.07,19.15,19.07,50.36t-19.07,50.19q-21,20.82-52,20.83H489.81V3.44h37.87Zm-.09,28.34h-9.27v85.45h9.53c25.65,0,42.37-17,42.37-42.73C570.22,49,553.22,31.69,527.59,31.69Z"/></g></g></svg>