<svg xmlns="http://www.w3.org/2000/svg" xmlns:xlink="http://www.w3.org/1999/xlink" viewBox="0 0 401.5 401.5"><defs><style>.cls-1{font-size:57.22px;font-family:Roboto-BoldItalic, Roboto;font-weight:700;font-style:italic;letter-spacing:-0.1em;}.cls-1,.cls-6{fill:#fff;}.cls-2{letter-spacing:-0.03em;}.cls-3{letter-spacing:-0.06em;}.cls-4{letter-spacing:-0.12em;}.cls-5{letter-spacing:-0.1em;}.cls-6{font-size:11.87px;font-family:Roboto-Light, Roboto;letter-spacing:0.05em;}.cls-7{letter-spacing:0.04em;}.cls-8{letter-spacing:-0.01em;}.cls-9{letter-spacing:0.01em;}.cls-10,.cls-11{fill:none;stroke-miterlimit:10;}.cls-10{stroke:#fff;stroke-width:0.75px;}.cls-11{stroke:#1a1a1a;stroke-width:3.5px;}.cls-12{mask:url(#mask);}.cls-13{fill:#1a1a1a;}.cls-14{filter:url(#luminosity-invert-noclip);}</style><filter id="luminosity-invert-noclip" x="15.71" y="192.75" width="369.11" height="191.27" filterUnits="userSpaceOnUse" color-interpolation-filters="sRGB"><feColorMatrix values="-1 0 0 0 1 0 -1 0 0 1 0 0 -1 0 1 0 0 0 1 0" result="invert"/><feFlood flood-color="#fff" result="bg"/><feBlend in="invert" in2="bg"/></filter><mask id="mask" x="15.71" y="192.75" width="369.11" height="191.27" maskUnits="userSpaceOnUse"><g class="cls-14"><text class="cls-1" transform="translate(95.08 297.93)">MO<tspan class="cls-2" x="77.7" y="0">R</tspan><tspan class="cls-3" x="112.73" y="0">A</tspan><tspan class="cls-4" x="145.7" y="0">D</tspan><tspan class="cls-5" x="176.67" y="0">A</tspan></text><text class="cls-6" transform="translate(152.1 317.17)">IGRE<tspan class="cls-7" x="27.94" y="0">J</tspan><tspan x="34.95" y="0">A B</tspan><tspan class="cls-8" x="54.31" y="0">A</tspan><tspan x="61.57" y="0">TIS</tspan><tspan class="cls-9" x="80.63" y="0">T</tspan><tspan x="87.86" y="0">A</tspan></text><line class="cls-10" x1="255.75" y1="313.25" x2="303.75" y2="313.25"/><line class="cls-10" x1="94.75" y1="313.25" x2="142.75" y2="313.25"/></g></mask></defs><title>Ativo 4</title><g id="Camada_2" data-name="Camada 2"><g id="Logo"><circle id="Circle_2" data-name="Circle 2" class="cls-11" cx="200.75" cy="200.75" r="199"/><g class="cls-12"><path class="cls-13" d="M142.75,374.73c-58.59-19.49-88.61-62.28-98-77.12-28-44.21-29.36-87.66-29-104.86l35,19,39-15,34,23,22.5-10h107l23.5,12,36-24,32,15,40-18a185.75,185.75,0,0,1-23,94.85c-30.14,54.26-78.33,75.61-92,81.13C256.46,376.09,204.47,395.27,142.75,374.73Z"/></g><g id="Church"><path class="cls-13" d="M200.25,206.75H187.53q0-16.55,0-33.06a13.79,13.79,0,0,1,1.83-3.66,15.39,15.39,0,0,1,2.76-2.88,13.41,13.41,0,0,1,7.88-2.42h.28v-29h-6V121.2a6.81,6.81,0,0,1,5.56-4h.44V71.75h-4v24l-20,6.53v34.4l-18,5.13v56.94h-6v5h-6v7h54Z"/><rect class="cls-13" x="190.25" y="77.75" width="10" height="7"/><path class="cls-13" d="M199.25,206.75H212q0-16.55,0-33.06a13.79,13.79,0,0,0-1.83-3.66,15.39,15.39,0,0,0-2.76-2.88,13.41,13.41,0,0,0-7.88-2.42h-.28v-29h6V121.2a6.81,6.81,0,0,0-5.56-4h-.44V71.75h4v24l20,6.53v34.4l18,5.13v56.94h6v5h6v7h-54Z"/><rect class="cls-13" x="199.25" y="77.75" width="10" height="7"/></g></g></g></svg>