<svg xmlns="http://www.w3.org/2000/svg" xmlns:xlink="http://www.w3.org/1999/xlink" viewBox="0 0 400 400"><defs><style>.cls-1{fill:#fff;}.cls-2,.cls-3{fill:none;stroke-miterlimit:10;}.cls-2{stroke:#fff;}.cls-3{stroke:#1a1a1a;stroke-width:2px;}.cls-4{mask:url(#mask);}.cls-5{fill:#1a1a1a;}.cls-6{filter:url(#luminosity-invert-noclip);}</style><filter id="luminosity-invert-noclip" x="14.96" y="68.75" width="369.11" height="314.51" filterUnits="userSpaceOnUse" color-interpolation-filters="sRGB"><feColorMatrix values="-1 0 0 0 1 0 -1 0 0 1 0 0 -1 0 1 0 0 0 1 0" result="invert"/><feFlood flood-color="#fff" result="bg"/><feBlend in="invert" in2="bg"/></filter><mask id="mask" x="14.96" y="68.75" width="369.11" height="314.51" maskUnits="userSpaceOnUse"><g class="cls-6"><path class="cls-1" d="M273.6,284.18l9.87-21.27,9.93,21.27h10.08q-10-21.35-20-42.68l-19.28,42.68Z"/><polygon class="cls-1" points="284.96 284.18 284.96 279.21 287.91 279.21 287.91 276.45 284.96 276.45 284.96 273.24 282.17 273.24 282.17 276.45 279.22 276.45 279.22 279.21 282.17 279.21 282.17 284.18 284.96 284.18"/><path class="cls-1" d="M229.42,277.81l2.84,6.37h18.58a20.89,20.89,0,0,0,15.3-6.13q5.61-5.6,5.61-14.77t-5.61-14.83a21.31,21.31,0,0,0-15.3-6.15v0H239.69v38.1l-17.44-39L204.5,281.18,196.68,269a9.57,9.57,0,0,0,5-3.88,13.58,13.58,0,0,0,2.65-8v-1.09c0-4.64-1.51-7-4.06-9.51a15.38,15.38,0,0,0-11-4.26H175.66v12.47a21.37,21.37,0,0,0-4.53-6.55,21.15,21.15,0,0,0-30,0,21.63,21.63,0,0,0-4.55,6.64V241.31l-20.5,28.14L95.52,241.31v42.87h8.42V266.82l12.11,16.68,12.08-16.68v17.36h8.42V271.67a21.28,21.28,0,0,0,4.55,6.61,21.34,21.34,0,0,0,30,0,21.13,21.13,0,0,0,4.54-6.54v12.44h8.42V265.65l12,18.53h16.11l2.83-6.37Zm18.67-27.17h2.72c7.55,0,12.55,5.08,12.55,12.57s-4.92,12.58-12.47,12.58h-2.8Zm-25.81,10.88,3.82,8.86h-7.69Zm-57.17,10.71a12.74,12.74,0,1,1-18-18,12.74,12.74,0,1,1,18,18Zm25-10h-2.8v0h-3.25V250.64h4.73a7.88,7.88,0,0,1,5.2,1.66,5.68,5.68,0,0,1,1.66,4A5.76,5.76,0,0,1,190.13,262.22Z"/><path class="cls-1" d="M171.57,302.27a5.31,5.31,0,0,1-1.72,3.29,4.92,4.92,0,0,1-3.39,1.25,3.52,3.52,0,0,1-2.9-1.3,4,4,0,0,1-.75-3.24l.29-1.93a5.32,5.32,0,0,1,1.68-3.28,4.76,4.76,0,0,1,3.33-1.26,3.63,3.63,0,0,1,3,1.31,3.93,3.93,0,0,1,.79,3.23Zm-1.5-1.94a3,3,0,0,0-.37-2.23,2.06,2.06,0,0,0-1.81-.83,2.63,2.63,0,0,0-2,.87,3.92,3.92,0,0,0-1,2.19l-.28,1.94a3.14,3.14,0,0,0,.34,2.24,1.91,1.91,0,0,0,1.74.84,2.76,2.76,0,0,0,2-.87,3.88,3.88,0,0,0,1.07-2.21Z"/><path class="cls-1" d="M184.18,306.66h-1.79L178.8,299h-.05l-1.14,7.71h-1.79l1.6-10.71h1.79l3.59,7.71h0L184,296h1.79Z"/><path class="cls-1" d="M203,302.09h-4.31l-.69,4.57H196.2L197.8,296h6.85l-.21,1.44h-5.07l-.49,3.27h4.32Z"/><path class="cls-1" d="M209.48,306.66h-1.79l1.6-10.71h1.79Z"/><path class="cls-1" d="M217.33,302.22l-.66,4.44h-1.78l1.6-10.71h3.68a3.75,3.75,0,0,1,2.61.82,2.44,2.44,0,0,1,.67,2.3,2.76,2.76,0,0,1-.65,1.45,3.54,3.54,0,0,1-1.4,1,1.89,1.89,0,0,1,1.15.95,2.68,2.68,0,0,1,.18,1.58l-.13.88a3.24,3.24,0,0,0,0,.93,1.15,1.15,0,0,0,.28.68l0,.17H221a1,1,0,0,1-.25-.74,6.4,6.4,0,0,1,.06-1.05l.13-.86a1.56,1.56,0,0,0-.27-1.32,1.48,1.48,0,0,0-1.22-.47Zm.22-1.44h1.81a2.67,2.67,0,0,0,1.6-.42,1.75,1.75,0,0,0,.7-1.25,1.51,1.51,0,0,0-.29-1.28,1.89,1.89,0,0,0-1.41-.44h-1.9Z"/><path class="cls-1" d="M234.17,301.84H230l-.5,3.39h4.93l-.21,1.43h-6.72l1.6-10.71h6.67l-.21,1.44h-4.9l-.44,3h4.19Z"/><line class="cls-2" x1="246.47" y1="301.43" x2="303.48" y2="301.43"/><line class="cls-2" x1="95.26" y1="301.43" x2="152.26" y2="301.43"/></g></mask></defs><title>Ativo 26</title><g id="Camada_2" data-name="Camada 2"><g id="Logo"><circle id="Circle_2" data-name="Circle 2" class="cls-3" cx="200" cy="200" r="199"/><g class="cls-4"><path class="cls-5" d="M142,374C83.41,354.5,53.39,311.7,44,296.86,16,252.65,14.64,209.2,15,192c20.92,10.82,30.33,9.55,35,6,2.82-2.14,3.27-4.62,7-9a44.29,44.29,0,0,1,20-13c-1.83,10.18,1.59,20.24,9,26,10.65,8.27,26.32,5.15,33-2,9.44-10.1,6.64-34.34-14-54a54.9,54.9,0,0,1,48,45,43.64,43.64,0,0,0,7.58-19.25c1.83-14.72-6.15-21.28-7-36-.87-15.17,6.46-27,11-34.33,14.21-22.85,36.66-30.63,43.34-32.67a50.18,50.18,0,0,0-7,53.67c4.28,9.28,8.87,11.81,17.24,22.13A140.17,140.17,0,0,1,235,171c.23-5.6,1.61-20.78,13-34a52.94,52.94,0,0,1,15-12,73,73,0,0,0-2,22c.42,6.74,1.46,20.62,11,33,3.58,4.65,12.26,15.9,22,14,7.36-1.44,10.8-9.5,11-10,3.36-8.22-.09-18.89-9-26a98.09,98.09,0,0,1,32,15c14.9,10.76,19.72,21.11,33,24,9.22,2,17.61-.65,23-3a185.75,185.75,0,0,1-23,94.85c-30.14,54.26-78.33,75.61-92,81.13C255.59,375.39,203.67,394.49,142,374Z"/></g></g></g></svg>